<svg width="61" height="51" viewBox="0 0 61 51" fill="none" xmlns="http://www.w3.org/2000/svg">
<path d="M50.3555 9.42423C49.2084 8.76705 48.4964 9.26482 47.8042 9.69101C44.8112 11.5357 41.828 13.3998 38.8416 15.2542C31.5733 19.7699 24.2984 24.2725 17.0466 28.8142C16.3082 29.2762 15.6819 29.4095 14.8282 29.1363C10.6782 27.8089 6.50508 26.5596 2.34847 25.255C1.31344 24.9297 0.0542638 24.6239 0.00152333 23.329C-0.0479209 22.0732 1.11567 21.5234 2.12433 21.1298C6.65012 19.3534 11.199 17.6324 15.7446 15.9017C29.1736 10.7841 42.606 5.67312 56.0383 0.562113C56.4108 0.418966 56.7866 0.282326 57.1722 0.181472C59.1401 -0.332557 60.7157 0.659714 60.7025 2.66703C60.6926 4.32949 60.3301 6.01147 59.9806 7.65116C57.1755 20.7849 54.3374 33.9122 51.5092 47.0394C50.7544 50.5433 48.6876 51.3371 45.777 49.2257C41.6105 46.2066 37.4539 43.1745 33.2907 40.1489C33.0006 39.9406 32.7006 39.7454 32.3776 39.5242C30.0636 41.7267 27.8089 43.9227 25.4818 46.0407C24.8258 46.6393 23.9589 47.0069 23.1876 47.4819C23.0755 47.3941 22.9667 47.303 22.8546 47.2151C22.9568 45.5917 23.0491 43.965 23.1612 42.3416C23.3491 39.6543 23.5765 36.9671 23.7216 34.2766C23.7611 33.5315 24.0149 33.024 24.5687 32.5295C32.7171 25.2941 40.849 18.0391 48.981 10.7841C49.426 10.397 49.8281 9.95452 50.3555 9.42423Z" fill="#202020"/>
</svg>
