<svg xmlns="http://www.w3.org/2000/svg" width="5" height="10" viewBox="0 0 5 10" fill="grey">
    <path fill-rule="evenodd" clip-rule="evenodd"
          d="M0.259003 4.24971C0.259003 3.8355 0.594789 3.49971 1.009 3.49971H2.15948C2.5737 3.49971 2.90948 3.8355 2.90948 4.24971V8.50148C2.90948 8.9157 2.5737 9.25148 2.15948 9.25148C1.74527 9.25148 1.40948 8.9157 1.40948 8.50148V4.99971H1.009C0.594789 4.99971 0.259003 4.66393 0.259003 4.24971Z"
          fill="grey"></path>
    <path fill-rule="evenodd" clip-rule="evenodd"
          d="M0.25 8.50148C0.25 8.08727 0.585786 7.75148 1 7.75148H3.3103C3.72452 7.75148 4.0603 8.08727 4.0603 8.50148C4.0603 8.9157 3.72452 9.25148 3.3103 9.25148H1C0.585786 9.25148 0.25 8.9157 0.25 8.50148Z"
          fill="grey"></path>
    <path fill-rule="evenodd" clip-rule="evenodd"
          d="M1.84939 0.245606C2.11508 0.245266 2.36998 0.350659 2.55785 0.538529C2.74572 0.726399 2.85112 0.981303 2.85078 1.24699C2.85007 1.799 2.40225 2.24605 1.85025 2.24581C1.29824 2.24558 0.850804 1.79815 0.850568 1.24614C0.850332 0.694128 1.29738 0.246313 1.84939 0.245606Z"
          fill="grey"></path>
</svg>