<svg width="55" height="54" viewBox="0 0 55 54" fill="none" xmlns="http://www.w3.org/2000/svg">
<path d="M40.0395 53.4059H15.2226C7.32489 53.4059 0.921875 47.0101 0.921875 39.1212V14.3321C0.921875 6.44319 7.32489 0.0473633 15.2226 0.0473633H40.0395C47.9372 0.0473633 54.3402 6.44319 54.3402 14.3321V39.1212C54.343 47.0101 47.94 53.4059 40.0395 53.4059Z" fill="#202020"/>
<path d="M27.6308 40.8047C35.4156 40.8047 41.7264 34.5009 41.7264 26.7248C41.7264 18.9488 35.4156 12.645 27.6308 12.645C19.846 12.645 13.5352 18.9488 13.5352 26.7248C13.5352 34.5009 19.846 40.8047 27.6308 40.8047Z" fill="white"/>
<path d="M27.631 35.0262C32.2209 35.0262 35.9417 31.3095 35.9417 26.7247C35.9417 22.14 32.2209 18.4233 27.631 18.4233C23.0411 18.4233 19.3203 22.14 19.3203 26.7247C19.3203 31.3095 23.0411 35.0262 27.631 35.0262Z" fill="#202020"/>
<path d="M42.3209 16.4423C44.4203 16.4423 46.1222 14.7423 46.1222 12.6452C46.1222 10.5482 44.4203 8.84814 42.3209 8.84814C40.2215 8.84814 38.5195 10.5482 38.5195 12.6452C38.5195 14.7423 40.2215 16.4423 42.3209 16.4423Z" fill="white"/>
</svg>
