<svg width="56" height="56" viewBox="0 0 56 56" fill="none" xmlns="http://www.w3.org/2000/svg">
<path d="M0.746094 55.2884C1.98562 50.7433 3.17385 46.3493 4.39717 41.9608C4.5619 41.3724 4.51329 40.9108 4.22164 40.3656C-4.609 23.8639 5.35046 3.5215 23.7814 0.396053C38.4451 -2.09243 52.2824 7.38918 55.3124 21.9962C58.4612 37.1835 47.9751 52.1819 32.5769 54.5165C26.7654 55.3964 21.2456 54.4841 15.9796 51.8877C15.5718 51.688 14.9939 51.6205 14.5565 51.7311C10.2546 52.8161 5.96347 53.9524 1.66968 55.0725C1.41583 55.1373 1.15927 55.1913 0.746094 55.2884ZM7.32721 48.8027C10.079 48.0875 12.6391 47.3965 15.2127 46.7785C15.6421 46.6759 16.2254 46.7488 16.6035 46.9674C21.3455 49.7096 26.4278 50.7919 31.8342 49.9498C43.7785 48.0929 52.0421 37.5317 51.0969 25.4455C50.0059 11.4674 36.174 1.72666 22.6012 5.38112C7.67289 9.39994 0.962143 26.3578 9.09335 39.5397C9.46601 40.1416 9.57944 40.6598 9.37151 41.367C8.66127 43.7772 8.03204 46.2171 7.32721 48.8027Z" fill="#202020"/>
<path d="M28.6487 52.4712C42.2596 52.4712 53.2934 41.5546 53.2934 28.0884C53.2934 14.6221 42.2596 3.70557 28.6487 3.70557C15.0377 3.70557 4.00391 14.6221 4.00391 28.0884C4.00391 41.5546 15.0377 52.4712 28.6487 52.4712Z" fill="#202020"/>
<path d="M16.5977 50.9636L8.74735 51.7813L4.11328 45.3961L7.32959 38.1932L15.18 37.3728L19.814 43.7607L16.5977 50.9636Z" fill="#202020"/>
<path d="M16.971 16.1534C15.3183 17.4975 14.9591 19.4516 14.8025 20.2991C14.7728 20.461 14.5675 21.6243 14.7404 22.9603C15.4479 28.3961 22.1451 34.423 22.48 34.7199C24.4891 36.4985 27.0519 38.7198 31.1486 40.1044C33.606 40.9357 35.1156 41.4188 36.7845 41.2191C37.6622 41.1138 39.9171 40.8439 41.3052 39.0518C41.9722 38.1908 42.1855 37.3055 42.4826 36.0802C42.6662 35.3191 42.6878 34.8737 42.4826 34.4716C42.226 33.9669 41.7345 33.7698 41.2404 33.5512C39.1583 32.6363 38.9098 32.2017 36.3524 31.3137C35.8069 31.1248 35.3803 30.9926 34.9914 31.1896C34.5485 31.4136 34.5809 31.8454 34.0624 32.7982C33.687 33.4918 33.309 34.1909 32.6392 34.4689C32.0694 34.7064 31.4915 34.5579 31.0298 34.4068C29.026 33.7536 27.376 32.477 26.6333 31.8697C23.8977 29.6377 24.1921 28.9926 22.4233 27.3516C22.2315 27.1762 21.7778 26.7632 21.7427 26.1748C21.7157 25.6998 21.9723 25.2869 22.1154 25.0601C22.3449 24.6904 22.534 24.5716 22.9201 24.1938C23.5926 23.5379 24.0733 23.0683 24.2218 22.461C24.3271 22.0211 24.2191 21.6675 24.0355 21.1007C22.831 17.3707 22.5151 16.8525 22.1775 16.3963C21.6428 15.6757 21.3755 15.314 20.8759 15.0954C19.2097 14.3748 17.2086 15.9618 16.971 16.1534Z" fill="white"/>
</svg>
