<svg width="191" height="191" viewBox="0 0 191 191" fill="none" xmlns="http://www.w3.org/2000/svg">
<path opacity="0.61" d="M95.5 163.9H95.5855M65.575 133.368C73.5662 125.535 84.3101 121.148 95.5 121.148C106.69 121.148 117.434 125.535 125.425 133.368M35.65 102.844C47.7741 90.9592 63.1623 82.9526 79.8535 79.8449M155.35 102.844C150.202 97.7978 144.436 93.4226 138.19 89.8228M10 68.311C20.5729 58.8553 32.6412 51.2191 45.7133 45.7133M181 68.311C167.959 56.6472 152.669 47.7751 136.071 42.2406C119.474 36.7061 101.919 34.6262 84.4876 36.1288M10 10L181 181" stroke="white" stroke-width="20" stroke-linecap="round" stroke-linejoin="round"/>
</svg>
