<svg width="77" height="54" viewBox="0 0 77 54" fill="none" xmlns="http://www.w3.org/2000/svg">
<path d="M36.8821 0.711426C46.0049 1.11592 55.1278 1.50976 64.247 1.94618C65.4798 2.0065 66.7235 2.19456 67.9273 2.46422C71.9811 3.369 74.7332 5.80303 75.4475 9.79471C76.1908 13.9461 76.5788 18.179 76.829 22.3942C77.2279 29.1783 76.9269 35.9589 75.9479 42.6897C74.9834 49.3319 71.8325 52.1633 64.9251 52.7275C50.4068 53.9161 35.8668 53.9268 21.3268 53.2952C17.5305 53.132 13.716 52.8978 9.96313 52.3478C4.82881 51.5956 2.06584 48.7287 1.22825 43.7081C0.0570714 36.6791 -0.229377 29.5864 0.169476 22.49C0.401536 18.3529 0.767754 14.198 1.47119 10.1141C2.26527 5.50145 5.56849 2.54228 10.3511 2.22295C18.7379 1.65879 27.1464 1.38913 35.5441 1.00238C35.9828 0.981089 36.4252 0.998826 36.8676 0.998826C36.8748 0.903026 36.8784 0.807226 36.8821 0.711426ZM30.9102 16.1034C30.9102 23.6787 30.9102 31.0518 30.9102 38.5845C37.5891 34.8199 44.1231 31.1369 50.8564 27.3439C44.1231 23.5509 37.5891 19.868 30.9102 16.1034Z" fill="#202020"/>
</svg>
